<svg width="357px" height="245px" viewBox="0 0 357 245" version="1.1" xmlns="http://www.w3.org/2000/svg" xmlns:xlink="http://www.w3.org/1999/xlink">
    <!-- -->
    <title>7C6FD5D5-6828-4F13-8ED0-937936577A9C</title>
    <desc>Created with sketchtool.</desc>
    <g id="6.0-Products---desktop" stroke="none" stroke-width="1" fill="none" fill-rule="evenodd" stroke-dasharray="6">
        <g id="6.0-Products-(desktop-1024)---video-conferencing-v2" transform="translate(-667.000000, -712.000000)" stroke="#D4DDE6">
            <g id="content-/-full-/-short-(256)-/-why-product" transform="translate(0.000000, 712.000000)">
                <g id="bg---white---2">
                    <g id="s-net-2---white---right---masked">
                        <g id="s-net" transform="translate(1122.534878, 329.001218) scale(-1, 1) rotate(-4.000000) translate(-1122.534878, -329.001218) translate(327.034878, -379.998782)">
                            <path d="M788.56086,-98.25 C639.379234,153.190143 644.507352,405.680872 803.945215,659.222186 C963.383077,912.7635 942.870604,1198.52277 742.407794,1516.5" id="Path-6_70" transform="translate(795.142914, 709.125000) rotate(69.000000) translate(-795.142914, -709.125000) "></path>
                            <path d="M788.4318,-98.25 C636.325044,153.190143 641.553714,405.680872 804.117809,659.222186 C966.681904,912.7635 945.767225,1198.52277 741.373772,1516.5" id="Path-6_69" transform="translate(795.142914, 709.125000) rotate(68.000000) translate(-795.142914, -709.125000) "></path>
                            <path d="M788.30274,-98.25 C633.270854,153.190143 638.600076,405.680872 804.290403,659.222186 C969.980731,912.7635 948.663847,1198.52277 740.33975,1516.5" id="Path-6_68" transform="translate(795.142914, 709.125000) rotate(67.000000) translate(-795.142914, -709.125000) "></path>
                            <path d="M788.17368,-98.25 C630.216665,153.190143 635.646437,405.680872 804.462997,659.222186 C973.279558,912.7635 951.560468,1198.52277 739.305728,1516.5" id="Path-6_67" transform="translate(795.142914, 709.125000) rotate(66.000000) translate(-795.142914, -709.125000) "></path>
                            <path d="M788.04462,-98.25 C627.162475,153.190143 632.692799,405.680872 804.635591,659.222186 C976.578384,912.7635 954.457089,1198.52277 738.271706,1516.5" id="Path-6_66" transform="translate(795.142914, 709.125000) rotate(65.000000) translate(-795.142914, -709.125000) "></path>
                            <path d="M787.91556,-98.25 C624.108285,153.190143 629.73916,405.680872 804.808186,659.222186 C979.877211,912.7635 957.353711,1198.52277 737.237685,1516.5" id="Path-6_65" transform="translate(795.142914, 709.125000) rotate(64.000000) translate(-795.142914, -709.125000) "></path>
                            <path d="M787.7865,-98.25 C621.054095,153.190143 626.785522,405.680872 804.98078,659.222186 C983.176038,912.7635 960.250332,1198.52277 736.203663,1516.5" id="Path-6_64" transform="translate(795.142914, 709.125000) rotate(63.000000) translate(-795.142914, -709.125000) "></path>
                            <path d="M787.657441,-98.25 C617.999905,153.190143 623.831883,405.680872 805.153374,659.222186 C986.474864,912.7635 963.146953,1198.52277 735.169641,1516.5" id="Path-6_63" transform="translate(795.142914, 709.125000) rotate(62.000000) translate(-795.142914, -709.125000) "></path>
                            <path d="M787.528381,-98.25 C614.945716,153.190143 620.878245,405.680872 805.325968,659.222186 C989.773691,912.7635 966.043575,1198.52277 734.135619,1516.5" id="Path-6_62" transform="translate(795.142914, 709.125000) rotate(61.000000) translate(-795.142914, -709.125000) "></path>
                            <path d="M787.399321,-98.25 C611.891526,153.190143 617.924606,405.680872 805.498562,659.222186 C993.072518,912.7635 968.940196,1198.52277 733.101597,1516.5" id="Path-6_61" transform="translate(795.142914, 709.125000) rotate(60.000000) translate(-795.142914, -709.125000) "></path>
                            <path d="M787.270261,-98.25 C608.837336,153.190143 614.970968,405.680872 805.671156,659.222186 C996.371345,912.7635 971.836818,1198.52277 732.067575,1516.5" id="Path-6_60" transform="translate(795.142914, 709.125000) rotate(59.000000) translate(-795.142914, -709.125000) "></path>
                            <path d="M787.141201,-98.25 C605.783146,153.190143 612.017329,405.680872 805.84375,659.222186 C999.670171,912.7635 974.733439,1198.52277 731.033553,1516.5" id="Path-6_59" transform="translate(795.142914, 709.125000) rotate(58.000000) translate(-795.142914, -709.125000) "></path>
                            <path d="M787.012141,-98.25 C602.728956,153.190143 609.063691,405.680872 806.016345,659.222186 C1002.969,912.7635 977.63006,1198.52277 729.999531,1516.5" id="Path-6_58" transform="translate(795.142914, 709.125000) rotate(57.000000) translate(-795.142914, -709.125000) "></path>
                            <path d="M786.883081,-98.25 C599.674767,153.190143 606.110053,405.680872 806.188939,659.222186 C1006.26782,912.7635 980.526682,1198.52277 728.965509,1516.5" id="Path-6_57" transform="translate(795.142914, 709.125000) rotate(56.000000) translate(-795.142914, -709.125000) "></path>
                            <path d="M786.754021,-98.25 C596.620577,153.190143 603.156414,405.680872 806.361533,659.222186 C1009.56665,912.7635 983.423303,1198.52277 727.931487,1516.5" id="Path-6_56" transform="translate(795.142914, 709.125000) rotate(55.000000) translate(-795.142914, -709.125000) "></path>
                            <path d="M786.624962,-98.25 C593.566387,153.190143 600.202776,405.680872 806.534127,659.222186 C1012.86548,912.7635 986.319924,1198.52277 726.897465,1516.5" id="Path-6_55" transform="translate(795.142914, 709.125000) rotate(54.000000) translate(-795.142914, -709.125000) "></path>
                            <path d="M786.495902,-98.25 C590.512197,153.190143 597.249137,405.680872 806.706721,659.222186 C1016.16431,912.7635 989.216546,1198.52277 725.863443,1516.5" id="Path-6_54" transform="translate(795.142914, 709.125000) rotate(53.000000) translate(-795.142914, -709.125000) "></path>
                            <path d="M786.366842,-98.25 C587.458008,153.190143 594.295499,405.680872 806.879315,659.222186 C1019.46313,912.7635 992.113167,1198.52277 724.829421,1516.5" id="Path-6_53" transform="translate(795.142914, 709.125000) rotate(52.000000) translate(-795.142914, -709.125000) "></path>
                            <path d="M786.237782,-98.25 C584.403818,153.190143 591.34186,405.680872 807.051909,659.222186 C1022.76196,912.7635 995.009789,1198.52277 723.795399,1516.5" id="Path-6_52" transform="translate(795.142914, 709.125000) rotate(51.000000) translate(-795.142914, -709.125000) "></path>
                            <path d="M786.108722,-98.25 C581.349628,153.190143 588.388222,405.680872 807.224504,659.222186 C1026.06079,912.7635 997.90641,1198.52277 722.761377,1516.5" id="Path-6_51" transform="translate(795.142914, 709.125000) rotate(50.000000) translate(-795.142914, -709.125000) "></path>
                            <path d="M785.979662,-98.25 C578.295438,153.190143 585.434583,405.680872 807.397098,659.222186 C1029.35961,912.7635 1000.80303,1198.52277 721.727355,1516.5" id="Path-6_50" transform="translate(795.142914, 709.125000) rotate(49.000000) translate(-795.142914, -709.125000) "></path>
                            <path d="M785.850602,-98.25 C575.241248,153.190143 582.480945,405.680872 807.569692,659.222186 C1032.65844,912.7635 1003.69965,1198.52277 720.693333,1516.5" id="Path-6_49" transform="translate(795.142914, 709.125000) rotate(48.000000) translate(-795.142914, -709.125000) "></path>
                            <path d="M785.721542,-98.25 C572.187059,153.190143 579.527306,405.680872 807.742286,659.222186 C1035.95727,912.7635 1006.59627,1198.52277 719.659311,1516.5" id="Path-6_48" transform="translate(795.142914, 709.125000) rotate(47.000000) translate(-795.142914, -709.125000) "></path>
                            <path d="M785.592482,-98.25 C569.132869,153.190143 576.573668,405.680872 807.91488,659.222186 C1039.25609,912.7635 1009.4929,1198.52277 718.625289,1516.5" id="Path-6_47" transform="translate(795.142914, 709.125000) rotate(46.000000) translate(-795.142914, -709.125000) "></path>
                            <path d="M785.463423,-98.25 C566.078679,153.190143 573.62003,405.680872 808.087474,659.222186 C1042.55492,912.7635 1012.38952,1198.52277 717.591268,1516.5" id="Path-6_46" transform="translate(795.142914, 709.125000) rotate(45.000000) translate(-795.142914, -709.125000) "></path>
                            <path d="M785.334363,-98.25 C563.024489,153.190143 570.666391,405.680872 808.260068,659.222186 C1045.85375,912.7635 1015.28614,1198.52277 716.557246,1516.5" id="Path-6_45" transform="translate(795.142914, 709.125000) rotate(44.000000) translate(-795.142914, -709.125000) "></path>
                            <path d="M785.205303,-98.25 C559.970299,153.190143 567.712753,405.680872 808.432663,659.222186 C1049.15257,912.7635 1018.18276,1198.52277 715.523224,1516.5" id="Path-6_44" transform="translate(795.142914, 709.125000) rotate(43.000000) translate(-795.142914, -709.125000) "></path>
                        </g>
                    </g>
                </g>
            </g>
        </g>
    </g>
</svg>