<svg viewBox="0 0 128 128" fill="none" xmlns="http://www.w3.org/2000/svg">
<path d="M38.4473 24.7221C37.3292 26.126 35.8033 27.2352 33.8704 28.0501C31.9374 28.8651 29.8346 29.2722 27.5623 29.2714C26.5393 29.2714 25.4924 29.1763 24.4218 28.9859C22.9467 30.0327 21.2931 30.7944 19.4611 31.27C19.0329 31.3772 18.5213 31.4723 17.9266 31.5556H17.873C17.742 31.5556 17.6202 31.5081 17.5073 31.4131C17.3943 31.3175 17.3259 31.1928 17.3021 31.0384C17.2899 31.0025 17.2841 30.964 17.2841 30.9225C17.2841 30.881 17.2871 30.8421 17.2931 30.8066C17.2989 30.7707 17.3111 30.7356 17.3287 30.6996L17.3734 30.6107L17.4359 30.5125C17.4775 30.4471 17.5013 30.4173 17.5073 30.4237C17.5132 30.4293 17.5399 30.3997 17.5876 30.3343C17.6353 30.2689 17.6591 30.2419 17.6591 30.2539C17.7184 30.1827 17.8553 30.034 18.0695 29.8079C18.2838 29.5823 18.4384 29.4064 18.5336 29.2816C18.6288 29.1571 18.7625 28.9847 18.935 28.7644C19.1076 28.5441 19.2562 28.3153 19.3812 28.0774C19.5061 27.8392 19.6281 27.5778 19.7469 27.2921C18.2719 26.4357 17.112 25.3827 16.2675 24.1339C15.4229 22.8848 15 21.5519 15 20.1364C15 18.4827 15.5592 16.9542 16.6774 15.5503C17.7954 14.1466 19.3211 13.0372 21.2542 12.2222C23.1874 11.4076 25.29 11 27.5621 11C29.8344 11 31.937 11.4073 33.8701 12.2222C35.8032 13.0373 37.3289 14.1466 38.4469 15.5503C39.5653 16.954 40.1244 18.4827 40.1244 20.1363C40.1244 21.7899 39.5653 23.3184 38.4473 24.7221Z" class="has-icon-color-secondary" fill="#727382" stroke="none"></path>
<path d="M46.9767 24.7045C46.9767 26.1322 46.5545 27.4671 45.7097 28.7101C44.8652 29.9536 43.7056 31.0034 42.2305 31.8607C42.3494 32.146 42.4713 32.4078 42.5962 32.6457C42.7212 32.8837 42.87 33.1127 43.0424 33.3326C43.2148 33.5529 43.3487 33.7253 43.4439 33.8502C43.5391 33.9751 43.6935 34.1506 43.9078 34.3764C44.1218 34.6025 44.2586 34.7511 44.318 34.8226C44.33 34.8345 44.354 34.8615 44.3895 34.9027C44.4254 34.9441 44.452 34.974 44.4695 34.9917C44.4875 35.0095 44.5112 35.0397 44.5409 35.0809C44.5708 35.1224 44.591 35.1554 44.6033 35.1789L44.6478 35.2679C44.6478 35.2679 44.6598 35.3036 44.6833 35.3751C44.7069 35.4463 44.7099 35.4852 44.6923 35.4908C44.6744 35.4965 44.6688 35.5357 44.6744 35.6071C44.6389 35.7735 44.5615 35.904 44.4425 35.9991C44.3237 36.0943 44.1925 36.136 44.0498 36.1241C43.455 36.0409 42.9435 35.9459 42.5152 35.8386C40.6833 35.3624 39.0296 34.6014 37.5546 33.5542C36.4838 33.7446 35.4371 33.8399 34.4139 33.8399C31.1902 33.8399 28.3827 33.0546 25.9917 31.4846C26.6815 31.5321 27.205 31.5557 27.5618 31.5557C29.4771 31.5557 31.3152 31.2878 33.0754 30.7527C34.8362 30.2172 36.4065 29.4501 37.7865 28.4509C39.2734 27.3562 40.4155 26.0954 41.2125 24.6681C42.01 23.2404 42.408 21.7296 42.408 20.1357C42.408 19.2195 42.2712 18.3154 41.9978 17.4233C43.5323 18.2679 44.7458 19.3269 45.6382 20.5995C46.53 21.8722 46.9767 23.2411 46.9767 24.7045Z" class="has-icon-color-secondary" fill="#727382" stroke="none"></path>
<path d="M95.757 26.8025L82.8204 19.8127C81.7869 19.2566 81.8892 18.6332 83.0443 18.4295L108.668 13.9114C109.821 13.708 110.131 14.2588 109.348 15.1352L99.5819 26.1281C99.1391 26.6272 98.4615 26.9322 97.7677 27.0195C97.0848 27.1749 96.3436 27.119 95.757 26.8025Z" class="has-icon-color-tertiary" fill="#727382" stroke="none"></path>
<path d="M99.8423 28.9679L110.586 17.3629C111.384 16.5025 112.203 16.7441 112.407 17.8992L115.132 33.3511C115.335 34.5061 114.556 35.6186 113.401 35.8223L86.089 40.6382C84.9339 40.8419 83.8214 40.0629 83.6178 38.9079L80.8932 23.4559C80.6895 22.3009 81.3769 21.7936 82.4208 22.3292L96.4881 29.5594C97.0132 29.8249 97.6508 29.8886 98.2558 29.7737C98.8624 29.6749 99.44 29.3981 99.8423 28.9679Z" class="has-icon-color-tertiary" fill="#727382" stroke="none"></path>
<path d="M84.9048 117.261C83.8871 118.273 82.2016 118.242 81.146 117.191L79.7166 115.735L79.7445 115.703C79.2623 115.088 78.859 114.38 78.5618 113.622C78.2867 112.916 78.1129 112.222 78.0257 111.497C77.9901 111.165 77.2613 103.454 86.8439 93.893C93.7768 86.976 98.8874 84.4288 104.481 85.1052C105.179 85.1842 105.875 85.3565 106.605 85.6331C107.371 85.9332 108.082 86.3362 108.698 86.8183L108.737 86.7791L110.187 88.2167C111.242 89.2697 111.274 90.9521 110.26 91.9646L105.152 97.0597C104.136 98.0722 102.451 98.0422 101.395 96.9892L100.544 96.1412L98.8178 94.4164C98.66 94.5063 98.4939 94.5974 98.3216 94.6924C96.6955 95.5929 94.4678 96.8246 92.1212 99.1661C89.7795 101.501 88.5462 103.72 87.6463 105.341C87.5471 105.518 87.4536 105.686 87.364 105.848L89.9392 108.418C90.9935 109.469 91.0252 111.151 90.0121 112.166L84.9048 117.261Z" class="has-icon-color-secondary" fill="#727382" stroke="none"></path>
<path d="M26.7263 85.1222C26.9526 87.7092 25.0972 89.9848 22.582 90.2048C20.0669 90.4249 17.8445 88.5061 17.6182 85.9191C17.3919 83.3321 19.2473 81.0566 21.7624 80.8365C24.2776 80.6165 26.4999 82.5353 26.7263 85.1222Z" class="has-icon-color-tertiary" fill="#727382" stroke="none"></path>
<path d="M22.7187 91.7662C27.1202 91.3811 31.0093 94.739 31.4054 99.2662L15.4663 100.661C15.0702 96.1335 18.3172 92.1513 22.7187 91.7662Z" class="has-icon-color-tertiary" fill="#727382" stroke="none"></path>
<path fill-rule="evenodd" clip-rule="evenodd" d="M90.1807 80.2801L90.2492 80.2803C96.9834 80.2803 102.442 74.5339 102.442 67.4454C102.442 60.3569 96.9834 54.6105 90.2492 54.6105C89.7086 54.6105 89.1762 54.6475 88.6542 54.7193C86.9984 49.7659 82.0912 46.1745 76.295 46.1745C75.1653 46.1745 74.0695 46.3109 73.0248 46.5672C70.4428 40.3794 64.0526 36 56.5785 36C47.0576 36 39.2956 43.1063 38.9237 52.0047C32.6056 53.7855 28 59.3115 28 65.8527C28 73.8334 34.8558 80.3031 43.3129 80.3031C43.6051 80.3031 43.8954 80.2953 44.1835 80.2801H90.1807ZM71.137 60.1252L69.2952 59.9247L69.8297 55.0132L63.7662 59.8866C63.2278 60.3193 62.4407 60.2336 62.008 59.6953C61.5753 59.157 61.661 58.3698 62.1993 57.9372L68.015 53.2629L63.5504 52.7771L63.7508 50.9353L71.1179 51.7369C71.3622 51.7635 71.5858 51.886 71.7398 52.0775C71.8937 52.269 71.9652 52.5138 71.9386 52.758L71.137 60.1252ZM70.7763 63.4406L68.9345 63.2402L68.4001 68.1518L63.5268 62.0884C63.0941 61.5501 62.3069 61.4645 61.7686 61.8971C61.2303 62.3298 61.1446 63.117 61.5773 63.6553L66.2514 69.4708L61.7869 68.985L61.5865 70.8268L68.9536 71.6284C69.1978 71.655 69.4426 71.5834 69.6341 71.4295C69.8256 71.2756 69.9481 71.0519 69.9747 70.8077L70.7763 63.4406ZM49.2257 61.0957L51.0674 61.2961L50.533 66.2076L56.5965 61.3342C57.1348 60.9015 57.922 60.9872 58.3547 61.5255C58.7873 62.0638 58.7017 62.851 58.1633 63.2837L52.3476 67.9579L56.8122 68.4437L56.6118 70.2855L49.2447 69.4839C49.0005 69.4573 48.7768 69.3348 48.6229 69.1433C48.469 68.9518 48.3975 68.707 48.424 68.4628L49.2257 61.0957ZM49.5864 57.7805L51.4282 57.9809L51.9626 53.0692L56.8359 59.1326C57.2686 59.6709 58.0558 59.7566 58.5941 59.3239C59.1324 58.8912 59.2181 58.1041 58.7854 57.5658L54.1113 51.7503L58.5758 52.2361L58.7762 50.3943L51.4091 49.5927C51.1649 49.5661 50.9201 49.6376 50.7286 49.7915C50.5371 49.9454 50.4146 50.1691 50.388 50.4133L49.5864 57.7805Z" class="has-icon-color-primary" fill="#869CC3" stroke="none"></path>
</svg>