<svg viewBox="0 0 128 128" fill="none" xmlns="http://www.w3.org/2000/svg">
<path d="M72.8323 113.956L46.3656 98.9708C44.4432 97.8823 42.0064 98.5607 40.923 100.486L38.9612 103.972C37.8777 105.897 38.5578 108.34 40.4802 109.428L53.7135 116.921L66.9469 124.413C68.8693 125.502 71.306 124.823 72.3895 122.898L74.3513 119.412C75.4348 117.487 74.7547 115.044 72.8323 113.956Z" class="has-icon-color-tertiary" fill="#727382" stroke="none"></path>
<path d="M47.9476 28.5542C49.5503 24.7128 52.3883 21.458 56 19.2256V42.464C54.937 42.1243 53.7887 41.8387 52.6585 41.7108C49.0274 41.2998 46.3976 43.1069 44.9116 45.1937C43.5778 47.0668 42.9496 49.4134 43.0786 51.2806C43.3588 55.3371 44.4276 57.667 45.0797 59.0884C45.2029 59.3571 45.3113 59.5933 45.3966 59.8026C45.589 60.2744 45.6536 60.5473 45.6442 60.9835C45.6323 61.5412 45.4854 62.5399 44.8615 64.3846C44.4144 65.7064 44.1056 67.1366 43.9168 68.6041L27.4854 68.6042C19.4853 68.6042 13 61.7776 13 53.3565C13 44.9353 19.4853 38.1087 27.4854 38.1087C28.1278 38.1087 28.7604 38.1527 29.3807 38.238C31.3479 32.3539 37.1775 28.0877 44.063 28.0877C45.4049 28.0877 46.7067 28.2497 47.9476 28.5542Z" class="has-icon-color-primary" fill="#869CC3" stroke="none"></path>
<path d="M56.0001 46.6213V93.7791C56.0001 96.5092 58.2098 98.7416 60.9598 98.7416H91.0564C88.5788 101.971 85.2799 105.043 80.9858 106.365L76.799 111.144L47.8408 95.4183L51.5332 88.7544C51.492 87.3841 51.0966 86.1704 50.5799 84.5844C50.2642 83.6151 49.9032 82.5068 49.55 81.1386C47.6869 76.9059 47.3548 70.0903 48.8792 65.5832C50.5001 60.7906 49.8481 59.3551 48.9295 57.3325C48.2936 55.9325 47.5299 54.2513 47.304 50.9808C47.181 49.2006 48.6445 45.2549 52.4229 45.6826C53.5729 45.8127 54.8381 46.1875 56.0001 46.6213Z" class="has-icon-color-tertiary" fill="#727382" stroke="none"></path>
<path fill-rule="evenodd" clip-rule="evenodd" d="M60.9597 11H105.584C106.114 11 106.544 11.4309 106.544 11.9625V33.275L102.292 35.932C99.0129 37.9806 98.0159 42.2992 100.065 45.5778L101.654 48.1219C101.691 48.1801 101.728 48.2376 101.766 48.2944C98.9115 50.4579 98.1299 54.4816 100.065 57.5778L101.654 60.1219C101.691 60.1801 101.728 60.2376 101.766 60.2944C98.9115 62.4579 98.1299 66.4816 100.065 69.5778L101.654 72.1219C101.691 72.1801 101.728 72.2376 101.766 72.2944C98.9115 74.4579 98.1299 78.4816 100.065 81.5778L101.654 84.1218C102.781 85.925 104.594 87.038 106.544 87.3338V93.7791C106.544 94.311 106.114 94.7417 105.584 94.7417H60.9597C60.4296 94.7417 60 94.311 60 93.7791V11.9625C60 11.4309 60.4296 11 60.9597 11ZM86.3623 45.9462C86.3623 48.276 84.7276 50.203 82.4326 50.203C80.1375 50.203 78.3457 48.276 78.3457 45.9462C78.3457 45.8006 78.3527 45.6566 78.3664 45.5145C78.5716 43.3831 80.2809 41.6895 82.4326 41.6895C84.7276 41.6895 86.3623 43.6165 86.3623 45.9462ZM73.7874 49.5722C75.35 49.5722 76.4595 48.3016 76.4595 46.7343C76.4595 45.167 75.35 43.8965 73.7874 43.8965C73.5921 43.8965 73.4038 43.9163 73.224 43.9541C71.9647 44.2188 71.1152 45.3629 71.1152 46.7343C71.1152 48.3016 72.2248 49.5722 73.7874 49.5722ZM73.7878 50.5176C75.6159 50.5176 77.2163 51.4958 78.0969 52.9589C79.3147 52.0615 80.8128 51.5322 82.4327 51.5322C82.5339 51.5322 82.6347 51.5343 82.7349 51.5384C84.2385 51.5998 85.6264 52.1174 86.7679 52.9586C87.6487 51.4957 89.2491 50.5176 91.0769 50.5176C93.8552 50.5176 96.107 52.7763 96.107 55.5627H88.9844C89.5185 56.6 89.8206 57.7799 89.8206 59.0314H75.0449C75.0449 57.7799 75.347 56.6 75.8811 55.5627H68.7578C68.7578 52.7763 71.0098 50.5176 73.7878 50.5176ZM93.7496 46.7343C93.7496 48.3016 92.6403 49.5722 91.0775 49.5722C90.8822 49.5722 90.6939 49.5523 90.5141 49.5145C89.255 49.2499 88.4053 48.1057 88.4053 46.7343C88.4053 45.167 89.5151 43.8965 91.0775 43.8965C92.6403 43.8965 93.7496 45.167 93.7496 46.7343Z" class="has-icon-color-primary" fill="#869CC3" stroke="none"></path>
<path d="M106.544 36.8125L103.881 38.4761C102.008 39.6468 101.438 42.1145 102.609 43.988L104.199 46.5321C104.23 46.5823 104.262 46.6315 104.295 46.6798C104.456 46.9134 104.637 47.1249 104.835 47.3134C105.323 47.7776 105.913 48.1021 106.544 48.273V36.8125Z" class="has-icon-color-primary" fill="#727382" stroke="none"></path>
<path d="M106.544 48.8125L103.881 50.4761C102.008 51.6468 101.438 54.1145 102.609 55.988L104.199 58.5321C104.23 58.5823 104.262 58.6315 104.295 58.6798C104.456 58.9134 104.637 59.1249 104.835 59.3134C105.323 59.7775 105.913 60.1021 106.544 60.273V48.8125Z" class="has-icon-color-primary" fill="#727382" stroke="none"></path>
<path d="M106.544 60.8125L103.881 62.4761C102.008 63.6468 101.438 66.1145 102.609 67.988L104.199 70.5321C104.23 70.5823 104.262 70.6315 104.295 70.6798C104.456 70.9134 104.637 71.1249 104.835 71.3134C105.323 71.7775 105.913 72.1021 106.544 72.273V60.8125Z" class="has-icon-color-primary" fill="#727382" stroke="none"></path>
<path d="M106.544 72.8125V84.273C105.604 84.0184 104.755 83.4225 104.199 82.5321L102.609 79.988C101.438 78.1145 102.008 75.6468 103.881 74.4761L106.544 72.8125Z" class="has-icon-color-primary" fill="currentColor" stroke="none"></path>
<path fill-rule="evenodd" clip-rule="evenodd" d="M102.608 43.9876C101.438 42.1141 102.007 39.6464 103.881 38.4757L110.07 34.6083C111.943 33.4377 114.411 34.0074 115.582 35.8809L117.172 38.425C118.342 40.2985 117.773 42.7662 115.899 43.9369L112.568 46.0183C113.764 46.1329 114.896 46.783 115.582 47.8809L117.172 50.425C118.342 52.2985 117.773 54.7662 115.899 55.9369L112.568 58.0183C113.764 58.1329 114.896 58.783 115.582 59.8809L117.172 62.425C118.342 64.2985 117.773 66.7662 115.899 67.9369L112.568 70.0183C113.764 70.1329 114.896 70.783 115.582 71.8809L117.172 74.425C118.342 76.2985 117.773 78.7662 115.899 79.9369L109.71 83.8043C107.837 84.9749 105.369 84.4052 104.198 82.5317L102.608 79.9876C101.438 78.1141 102.007 75.6464 103.881 74.4757L107.212 72.3943C106.016 72.2797 104.884 71.6296 104.198 70.5317L102.608 67.9876C101.438 66.1141 102.007 63.6464 103.881 62.4757L107.212 60.3943C106.016 60.2797 104.884 59.6296 104.198 58.5317L102.608 55.9876C101.438 54.1141 102.007 51.6464 103.881 50.4757L107.212 48.3943C106.016 48.2797 104.884 47.6296 104.198 46.5317L102.608 43.9876Z" class="has-icon-color-tertiary" fill="#727382" stroke="none"></path>
</svg>