<svg viewBox="0 0 128 128" fill="none" xmlns="http://www.w3.org/2000/svg">
<path d="M90.8087 54.8328C92.3026 56.485 92.1299 59.0957 90.423 60.6546L88.0598 62.7632L88.0132 62.7176C87.0248 63.4198 85.8962 63.9928 84.6991 64.3976C83.5848 64.772 82.4956 64.9903 81.3661 65.0721C80.8479 65.1027 68.8416 65.664 54.7256 50.1036C44.5137 38.8459 40.9416 30.7355 42.4026 22.1135C42.5766 21.0379 42.8951 19.9713 43.3776 18.8606C43.8993 17.6945 44.5765 16.6222 45.3693 15.7021L45.3114 15.6387L47.647 13.4981C49.3573 11.9391 51.9677 12.0139 53.4625 13.6614L60.9846 21.9556C62.4793 23.6054 62.3086 26.2153 60.5983 27.7743L59.221 29.031L56.4198 31.5798C56.5476 31.831 56.6765 32.0952 56.8111 32.3693C58.0872 34.9566 59.8323 38.5009 63.2893 42.3114C66.7359 46.1137 70.0852 48.1893 72.5325 49.7038C72.7988 49.8706 73.0523 50.028 73.2971 50.1788L77.471 46.3761C79.1787 44.8193 81.788 44.894 83.2866 46.5394L90.8087 54.8328Z" class="has-icon-color-tertiary" fill="#727382" stroke="none"></path>
<path d="M84.3306 16.0599C83.7651 15.9977 83.175 15.9729 82.5587 15.984C79.0349 16.0473 76.4634 17.0536 74.4506 19.9466C72.4692 22.7945 73.4912 28.7784 73.4912 28.7784L62.7357 37.8362L69.4827 45.1363L80.005 34.2343C80.0234 34.6069 88.1088 36.125 91.0826 32.5296C94.0492 28.9428 94.1014 24.514 91.5516 20.62C91.4307 20.4354 91.3076 20.2567 91.1822 20.0839L86.6611 27.8033L79.8046 23.7877L84.3306 16.0599Z" class="has-icon-color-secondary" fill="#727382" stroke="none"></path>
<path d="M40.9195 55.9401L49.1478 48.9237L57.3736 57.5055L50.6722 64.582C50.6722 64.582 48.8172 66.6711 47.2049 67.1981C44.3984 68.1153 41.8943 67.2975 39.948 65.0772C38.8925 63.8731 38.3354 62.9401 38.2601 61.3406C38.2028 60.1248 38.4485 59.4004 38.9911 58.3109C39.5231 57.2426 40.9195 55.9401 40.9195 55.9401Z" class="has-icon-color-secondary" fill="#727382" stroke="none"></path>
<path d="M58.9686 74.1793C56.6087 73.9755 54.232 74.2516 51.9818 74.991L36.0039 80.2409L41.323 111.233L48.45 109.224C50.0414 108.775 51.7052 108.642 53.3478 108.831L64.4615 110.112C73.3998 111.142 82.3814 108.581 89.4319 102.991L107.151 88.9428C108.82 87.6193 109.385 85.3356 108.526 83.3866C107.469 80.9925 104.656 79.9295 102.28 81.0274L88.3059 87.4863C85.7375 88.6734 82.9064 89.1784 80.086 88.9524L66.6033 87.8722C65.0326 87.7463 63.8587 86.3751 63.9765 84.8038C64.0951 83.221 65.4785 82.0366 67.0607 82.1634L78.806 83.1044C81.1225 83.29 83.003 81.2605 82.6416 78.9648C82.3847 77.3329 81.048 76.0865 79.4021 75.9443L58.9686 74.1793Z" class="has-icon-color-primary" fill="#869CC3" stroke="none"></path>
<rect x="20.2578" y="81.876" width="11.3367" height="35" rx="4" transform="rotate(-9.31505 20.2578 81.876)" class="has-icon-color-primary" fill="#869CC3" stroke="none"></rect>
</svg>