<svg viewBox="0 0 128 128" fill="none" xmlns="http://www.w3.org/2000/svg">
<path d="M83.0918 32.1816H85.2736C90.0935 32.1816 94.0008 36.0889 94.0008 40.9088C94.0008 45.7287 90.0935 49.636 85.2736 49.636H83.0918V32.1816Z" class="has-icon-color-tertiary" fill="#727382" stroke="none"></path>
<path d="M44.9082 32.1816H42.7264C37.9065 32.1816 33.9992 36.0889 33.9992 40.9088C33.9992 45.7287 37.9065 49.636 42.7264 49.636H44.9082V32.1816Z" class="has-icon-color-tertiary" fill="#727382" stroke="none"></path>
<path d="M79.4366 40.4421C79.4366 49.5099 73.1447 57.0101 64.3104 57.0101C55.476 57.0101 48.5791 49.5099 48.5791 40.4421C48.5791 31.3742 55.476 23.874 64.3104 23.874C73.1447 23.874 79.4366 31.3742 79.4366 40.4421Z" class="has-icon-color-primary" fill="#869CC3" stroke="none"></path>
<path d="M46.0034 67.373C49.0285 69.5508 52.7239 70.8828 56.6991 71.0329C58.2987 73.348 60.9713 74.8648 63.9982 74.8648C68.8947 74.8648 72.8641 70.8954 72.8641 65.9989C72.8641 64.3293 72.4026 62.7675 71.6003 61.4341C77.7947 63.1034 83.1638 66.8637 86.9484 71.9354C84.8611 74.4896 83.6714 77.8061 83.6714 81.3235C83.6714 84.3794 84.5694 87.2837 86.1738 89.6681H43.7527C43.3855 89.2259 42.996 88.8025 42.5862 88.3997C43.7109 86.2849 44.3277 83.8563 44.3277 81.3235C44.3277 78.0202 43.2784 74.8942 41.4219 72.4102C42.7516 70.5514 44.2907 68.8601 46.0034 67.373Z" class="has-icon-color-primary" fill="#869CC3" stroke="none"></path>
<path d="M97.5 91.6471C103.247 91.6471 107.328 87.0251 107.328 81.3235C107.328 75.622 103.247 71 97.5 71C91.7528 71 87.6719 75.622 87.6719 81.3235C87.6719 87.0251 91.7528 91.6471 97.5 91.6471Z" class="has-icon-color-secondary" fill="#727382" stroke="none"></path>
<path d="M116 113.441C116 103.305 107.717 95.0882 97.5 95.0882C87.2827 95.0882 79 103.305 79 113.441H116Z" class="has-icon-color-secondary" fill="#727382" stroke="none"></path>
<path d="M30.5 91.6471C36.2472 91.6471 40.3281 87.0251 40.3281 81.3235C40.3281 75.622 36.2472 71 30.5 71C24.7528 71 20.6719 75.622 20.6719 81.3235C20.6719 87.0251 24.7528 91.6471 30.5 91.6471Z" class="has-icon-color-secondary" fill="#727382" stroke="none"></path>
<path d="M49 113.441C49 103.305 40.7173 95.0882 30.5 95.0882C20.2827 95.0882 12 103.305 12 113.441H49Z" class="has-icon-color-secondary" fill="#727382" stroke="none"></path>
<path d="M58.7966 64.3632H57.4528C50.5102 64.3632 44.9075 58.976 44.9075 52.3633V33.5662C44.9075 23.4777 53.4406 15.2727 63.9982 15.2727C74.5558 15.2727 83.0889 23.4777 83.0889 33.5662V49.5941H86.3616V33.5662C86.3616 21.6409 76.3351 12 63.9982 12C51.6613 12 41.6348 21.6409 41.6348 33.5662V52.3633C41.6348 60.8128 48.7308 67.6359 57.4528 67.6359H58.7966C58.6344 67.1193 58.5469 66.5696 58.5469 65.9994C58.5469 65.4294 58.6343 64.8797 58.7966 64.3632Z" class="has-icon-color-secondary" fill="#727382" stroke="none"></path>
<path fill-rule="evenodd" clip-rule="evenodd" d="M58.7966 64.3632C58.6343 64.8797 58.5469 65.4294 58.5469 65.9994C58.5469 66.5696 58.6344 67.1193 58.7966 67.6359C59.4917 69.8488 61.5591 71.4539 64.0014 71.4539C67.0138 71.4539 69.4559 69.0119 69.4559 65.9994C69.4559 62.987 67.0138 60.5449 64.0014 60.5449C61.559 60.5449 59.4916 62.1502 58.7966 64.3632Z" class="has-icon-color-tertiary" fill="#727382" stroke="none"></path>
</svg>