<svg xmlns="http://www.w3.org/2000/svg" viewBox="0 0 128 128" fill="none">
  <path d="M0 41.8C0 28.3 11.6 17 28.5 17c19.6 0 30.8 15.8 30.8 32.5 0 44.4-32.5 59.9-54.4 61.5V89.4c11.6-1.3 26.9-9.7 28.2-24.8-.7.3-3.3 1.6-7.3 1.6C9.3 66.3 0 55.6 0 41.8zm69 0C69 28.3 80.6 17 97.5 17c19.6 0 30.5 15.8 30.5 32.5 0 44.4-32.2 59.9-54.1 61.5V89.4c11.6-1.3 26.9-9.7 28.2-24.8-1.3.6-3.6 1.6-7.3 1.6C78.3 66.3 69 55.6 69 41.8z" class="has-text-teal" clip-rule="evenodd" fill="#CB2233" fill-rule="evenodd"></path>
</svg>